<?xml version="1.0" standalone="no"?><!DOCTYPE svg PUBLIC "-//W3C//DTD SVG 1.1//EN" "http://www.w3.org/Graphics/SVG/1.1/DTD/svg11.dtd"><svg t="1596451908320" class="icon" viewBox="0 0 1207 1024" version="1.1" xmlns="http://www.w3.org/2000/svg" p-id="2113" xmlns:xlink="http://www.w3.org/1999/xlink" width="150.875" height="128"><defs><style type="text/css"></style></defs><path d="M251.7291143391927 132.63129742431641c104.14042794799802 4.250629577636719 265.66435766601563 23.37846350097656 335.79974816894526 78.6366496582031v671.5994963378905c-72.26070529174805-17.00251913452148-197.65428195190432-42.50629742431641-335.79974816894526-48.882241790771474V132.63129742431641m-42.50629742431641-42.50629742431641v786.3664990539551c174.27581845092774 0 342.1756925354004 42.50629742431641 399.55919430541996 57.383500946044926l21.253148712158204-6.375944366455077V192.14011315917963C530.1453607381185 92.25031478881834 230.47596562703447 90.125 209.22281691487635 90.125z" p-id="2114" fill="#ffffff"></path><path d="M965.8349072774251 132.63129742431641v701.3539042053222c-136.02015142822268 4.250629577636719-263.5390428771973 31.87972265625-335.79974734497074 48.882241790771474V211.26794708251953C702.2958652242025 158.13507571411134 861.694479329427 136.8819270019531 965.8349072774251 132.63129742431641m42.50629742431641-42.50629742431641c-19.127833923339843 0-318.7972290344239 2.1253147888183594-420.8123421936035 102.01511315917968v735.3589424743651l21.253148712158204 6.375944366455077c61.63413134765625-17.00251913452148 229.53400543212894-57.383500946044926 399.55919348144516-57.383500946044926V90.125z" p-id="2115" fill="#ffffff"></path><path d="M1106.1056882832843 876.4914990539551h-97.76448358154295c-12.751889556884768 0-21.253148712158204-8.501259155273438-21.253148712158204-21.253148712158204s8.501259155273438-21.253148712158204 21.253148712158204-21.253148712158204h55.25818615722657V153.8844461364746c0-12.751889556884768 8.501259155273438-21.253148712158204 21.253148712158204-21.253148712158204s21.253148712158204 8.501259155273438 21.253148712158204 21.253148712158204v722.6070529174806zM209.22281691487635 876.4914990539551H111.45833333333333V153.8844461364746c0-12.751889556884768 8.501259155273438-21.253148712158204 21.253148712158204-21.253148712158204s21.253148712158204 8.501259155273438 21.253148712158204 21.253148712158204v680.1007554931641h55.25818615722657c12.751889556884768 0 21.253148712158204 8.501259155273438 21.253148712158204 21.253148712158204s-10.626573944091797 21.253148712158204-21.253148712158204 21.253148712158204z" p-id="2116" fill="#ffffff"></path></svg>