<?xml version="1.0" standalone="no"?><!DOCTYPE svg PUBLIC "-//W3C//DTD SVG 1.1//EN" "http://www.w3.org/Graphics/SVG/1.1/DTD/svg11.dtd"><svg t="1596962573352" class="icon" viewBox="0 0 1210 1024" version="1.1" xmlns="http://www.w3.org/2000/svg" p-id="2383" xmlns:xlink="http://www.w3.org/1999/xlink" width="151.25" height="128"><defs><style type="text/css"></style></defs><path d="M489.472 1024h-451.072c-10.752 0-20.992-5.12-28.16-13.312-8.704-10.752-12.288-26.624-8.704-43.008l187.392-935.936c3.584-18.432 19.968-31.744 38.4-31.744h301.056c19.968 0 36.352 16.384 36.352 36.352v1.536L532.992 973.312c-1.024 28.16-19.968 50.688-43.52 50.688z m-439.808-48.64h434.176c0.512-1.024 0.512-2.56 0.512-3.584l30.72-922.624h-280.064l-185.344 926.208zM1044.48 363.52h-349.696c-20.992 0-38.4-17.92-38.912-39.936l-9.728-286.208c-0.512-19.968 14.848-36.864 34.816-37.376H983.552c18.944 0.512 34.816 13.312 38.4 31.744L1079.296 317.952c2.56 11.264-0.512 23.552-7.68 32.768-6.656 8.192-16.384 12.8-27.136 12.8z m-339.968-48.64H1029.12l-53.248-266.24h-280.064l8.704 266.24zM1209.344 967.68L1121.28 526.848c-4.608-22.016-23.04-38.912-43.008-38.912h-376.32c-10.24 0-19.968 4.096-26.624 11.776-8.192 8.704-12.8 20.48-12.288 32.768l14.848 440.832c1.024 28.672 19.968 50.688 43.52 50.688H1172.48c10.752 0 20.992-5.12 28.16-13.312 8.704-10.752 11.776-26.624 8.704-43.008z" p-id="2384" fill="#ffffff"></path></svg>