<?xml version="1.0" standalone="no"?><!DOCTYPE svg PUBLIC "-//W3C//DTD SVG 1.1//EN" "http://www.w3.org/Graphics/SVG/1.1/DTD/svg11.dtd"><svg t="1594831830291" class="icon" viewBox="0 0 1024 1024" version="1.1" xmlns="http://www.w3.org/2000/svg" p-id="5504" xmlns:xlink="http://www.w3.org/1999/xlink" width="128" height="128"><defs><style type="text/css"></style></defs><path d="M157.538 78.77c-43.503 0-78.769 35.265-78.769 78.768v708.924c0 43.503 35.266 78.769 78.77 78.769h708.923c43.503 0 78.769-35.266 78.769-78.77V157.539c0-43.503-35.266-78.769-78.77-78.769H157.539z m0-78.77h708.924C953.468 0 1024 70.532 1024 157.538v708.924C1024 953.468 953.468 1024 866.462 1024H157.538C70.532 1024 0 953.468 0 866.462V157.538C0 70.532 70.532 0 157.538 0z m118.154 472.615h472.616c21.751 0 39.384 17.633 39.384 39.385s-17.633 39.385-39.384 39.385H275.692c-21.751 0-39.384-17.633-39.384-39.385s17.633-39.385 39.384-39.385z" fill="#515151" p-id="5505"></path></svg>