<?xml version="1.0" standalone="no"?><!DOCTYPE svg PUBLIC "-//W3C//DTD SVG 1.1//EN" "http://www.w3.org/Graphics/SVG/1.1/DTD/svg11.dtd"><svg t="1594831850908" class="icon" viewBox="0 0 1024 1024" version="1.1" xmlns="http://www.w3.org/2000/svg" p-id="6270" xmlns:xlink="http://www.w3.org/1999/xlink" width="128" height="128"><defs><style type="text/css"></style></defs><path d="M480 480v-256a32 32 0 0 1 64 0v256h256a32 32 0 1 1 0 64h-256v256a32 32 0 1 1-64 0v-256h-256a32 32 0 0 1 0-64h256zM192 0h640a192 192 0 0 1 192 192v640a192 192 0 0 1-192 192H192a192 192 0 0 1-192-192V192a192 192 0 0 1 192-192z m0 64a128 128 0 0 0-128 128v640a128 128 0 0 0 128 128h640a128 128 0 0 0 128-128V192a128 128 0 0 0-128-128H192z" p-id="6271" fill="#515151"></path></svg>