<?xml version="1.0" standalone="no"?><!DOCTYPE svg PUBLIC "-//W3C//DTD SVG 1.1//EN" "http://www.w3.org/Graphics/SVG/1.1/DTD/svg11.dtd"><svg t="1597054633755" class="icon" viewBox="0 0 1048 1024" version="1.1" xmlns="http://www.w3.org/2000/svg" p-id="5516" xmlns:xlink="http://www.w3.org/1999/xlink" width="131" height="128"><defs><style type="text/css"></style></defs><path d="M875.029504 252.599296c-10.487808-81.263616-81.263616-146.799616-167.77216-146.799616H340.252672c-86.503424 0-157.283328 65.536-167.771136 146.799616-39.320576 13.108224-68.156416 47.187968-68.156416 89.127936V761.15968c0 49.808384 41.944064 91.752448 91.752448 91.752448h10.483712c31.456256 39.319552 81.263616 65.536 133.691392 65.536h367.004672c52.427776 0 102.23616-26.216448 133.692416-65.536h10.487808c49.804288 0 91.748352-41.944064 91.748352-91.752448V341.727232c-0.001024-41.939968-28.836864-76.019712-68.156416-89.127936zM340.252672 132.016128h367.004672c70.779904 0 128.448512 49.803264 141.555712 117.963776-49.808384 2.619392-89.127936 41.944064-89.127936 91.747328V761.15968H287.824896V341.727232c0-49.803264-39.319552-89.127936-89.127936-91.747328 13.108224-68.160512 70.779904-117.963776 141.555712-117.963776zM130.541568 761.15968V341.727232c0-36.699136 28.83584-65.536 65.536-65.536 36.699136 0 65.536 28.836864 65.536 65.536V761.15968c0 36.70016-28.836864 65.536-65.536 65.536-36.70016 0-65.536-28.83584-65.536-65.536z m576.715776 131.072H340.252672c-41.939968 0-78.639104-18.353152-107.475968-47.183872 23.591936-10.487808 41.939968-31.461376 49.804288-57.67168h479.72352c7.86432 26.211328 26.216448 47.183872 49.808384 57.67168-26.212352 28.83072-62.911488 47.183872-104.855552 47.183872z m209.7152-131.072c0 36.70016-28.83584 65.536-65.536 65.536s-65.536-28.83584-65.536-65.536V341.727232c0-36.699136 28.83584-65.536 65.536-65.536s65.536 28.836864 65.536 65.536V761.15968z m0 0" p-id="5517" fill="#d81e06" data-spm-anchor-id="a313x.7781069.0.i9" class="selected"></path><path d="M630.801408 379.214848h-17.395712v-34.844672c0-48.766976-38.311936-87.08096-87.081984-87.08096-48.718848 0-87.056384 38.313984-87.056384 87.08096v34.844672H421.84704c-19.131392 0-34.818048 15.664128-34.818048 34.7904v174.164992c0 19.127296 15.686656 34.791424 34.818048 34.791424h208.953344c19.180544 0 34.840576-15.664128 34.840576-34.791424V414.005248c0.004096-19.126272-15.657984-34.7904-34.839552-34.7904M526.322688 535.93088c-19.129344 0-34.816-15.686656-34.816-34.8416 0-19.156992 15.686656-34.844672 34.816-34.844672 19.182592 0 34.843648 15.686656 34.843648 34.844672 0.001024 19.154944-15.660032 34.8416-34.843648 34.8416m53.998592-156.716032H472.353792v-34.844672c0-29.615104 24.382464-53.972992 53.96992-53.972992 29.641728 0 53.997568 24.357888 53.997568 53.972992v34.844672z m0 0" p-id="5518" fill="#d81e06" data-spm-anchor-id="a313x.7781069.0.i6" class="selected"></path></svg>