<?xml version="1.0" standalone="no"?><!DOCTYPE svg PUBLIC "-//W3C//DTD SVG 1.1//EN" "http://www.w3.org/Graphics/SVG/1.1/DTD/svg11.dtd"><svg t="1594401902115" class="icon" viewBox="0 0 1024 1024" version="1.1" xmlns="http://www.w3.org/2000/svg" p-id="7151" xmlns:xlink="http://www.w3.org/1999/xlink" width="48" height="48"><defs><style type="text/css"></style></defs><path d="M789.952 352c0-177.792-138.816-320-312.32-320-173.568 0-312.32 142.272-312.32 320 0 120.896 62.464 224 159.68 277.376a428.16 428.16 0 0 0-260.352 320c-3.456 17.792 6.976 39.04 27.776 42.624h6.912a33.92 33.92 0 0 0 34.624-28.416c31.232-167.168 173.568-288 340.096-291.584h6.912c166.592 0.128 308.992-145.728 308.992-320z m-555.328 0c0-138.624 107.52-248.832 242.88-248.832 135.296 0 242.88 110.208 242.88 248.832 0 135.04-107.584 245.312-239.424 248.96h-10.432A250.24 250.24 0 0 1 234.624 352z m482.368 320.128c0 21.312 13.888 35.52 34.688 35.52h173.568c20.8 0 34.624-14.208 34.624-35.52 0-21.312-13.824-35.52-34.624-35.52h-173.44a35.008 35.008 0 0 0-34.816 35.52z m208.256 103.104h-277.696c-20.8 0-34.624 14.208-34.624 35.52 0 21.312 13.824 35.52 34.624 35.52h277.696c20.8 0 34.624-14.208 34.624-35.52 0.128-21.312-13.76-35.52-34.624-35.52z m0 142.208h-274.112c-20.8 0-34.624 14.208-34.624 35.52 0 21.312 13.824 35.52 34.624 35.52h274.176c20.8 0 34.688-14.208 34.688-35.52a35.2 35.2 0 0 0-34.752-35.52z" p-id="7152" fill="#ffffff"></path></svg>